<svg width="3154" height="1416" viewBox="0 0 3154 1416" fill="none" xmlns="http://www.w3.org/2000/svg">
<path d="M47.375 109.517C81.5021 109.498 81.5021 109.498 94.0676 109.492C94.8765 109.491 95.6855 109.491 96.519 109.49C194.225 109.443 291.932 109.43 535.985 109.754C536.762 109.757 537.539 109.759 538.34 109.761C544.641 109.779 544.641 109.779 547.683 109.787C559.16 109.819 570.637 109.843 582.115 109.863C595.097 109.886 608.078 109.919 621.06 109.966C627.597 109.989 634.133 110.008 640.67 110.015C737.165 110.124 835.116 126.15 912.375 188.517C913.306 189.245 914.236 189.974 915.195 190.724C919.517 194.12 923.581 197.529 927.375 201.517C928.833 202.955 930.291 204.393 931.75 205.83C935.822 209.915 939.685 214.085 943.375 218.517C943.807 219.035 944.239 219.553 944.684 220.087C952.214 229.171 959.134 238.5 965.375 248.517C965.752 249.115 966.129 249.713 966.518 250.329C985.225 280.372 995.395 318.064 995.578 353.388C995.585 354.3 995.592 355.211 995.599 356.15C995.819 392.951 992.792 428.543 980.375 463.517C980.149 464.179 979.923 464.84 979.689 465.521C971.476 489.514 959.239 511.736 943.375 531.517C942.582 532.514 941.789 533.51 940.973 534.537C929.87 548.208 917.314 560.787 903.12 571.23C901.299 572.573 899.499 573.942 897.699 575.314C827.787 628.19 734.779 644.661 649.375 651.767C647.881 651.892 647.881 651.892 646.357 652.019C643.447 652.259 640.536 652.491 637.625 652.72C636.801 652.787 635.977 652.853 635.128 652.922C617.26 654.282 599.424 654.662 581.51 654.631C579.202 654.63 576.894 654.63 574.585 654.631C568.388 654.631 562.191 654.625 555.994 654.618C549.492 654.612 542.99 654.612 536.488 654.61C525.597 654.608 514.706 654.601 503.815 654.593C492.609 654.583 481.403 654.576 470.197 654.572C469.504 654.572 468.81 654.571 468.096 654.571C464.616 654.57 461.137 654.569 457.657 654.567C428.896 654.557 400.136 654.539 371.375 654.517C371.136 683.29 370.982 712.062 370.94 740.836C370.935 744.251 370.929 747.666 370.923 751.081C370.922 751.761 370.921 752.44 370.92 753.141C370.899 764.074 370.821 775.007 370.722 785.941C370.622 797.201 370.585 808.461 370.601 819.723C370.607 826.031 370.588 832.337 370.498 838.644C370.123 866.486 370.445 889.007 386.428 912.574C389.394 917.058 391.806 921.798 394.25 926.58C395.015 928.01 395.782 929.439 396.555 930.865C398.297 934.088 399.162 936.878 400.375 940.517C283.885 940.517 167.395 940.517 47.375 940.517C52.6381 929.406 57.8653 918.392 63.5625 907.517C64.1394 906.407 64.7162 905.297 65.3105 904.154C70.2419 894.691 70.2419 894.691 71.8374 892.602C78.5606 882.815 77.2271 871.399 77.1773 860.033C77.1885 857.615 77.2023 855.197 77.2185 852.78C77.2475 847.53 77.2579 842.281 77.2517 837.032C77.2426 829.225 77.2676 821.419 77.299 813.612C77.3569 798.854 77.3739 784.095 77.3773 769.337C77.3801 757.933 77.3924 746.529 77.4115 735.125C77.4169 731.839 77.4222 728.553 77.4276 725.267C77.4289 724.45 77.4302 723.633 77.4316 722.791C77.4685 699.814 77.4922 676.837 77.4895 653.86C77.4894 652.561 77.4894 652.561 77.4893 651.236C77.4888 646.847 77.4882 642.458 77.4875 638.069C77.4874 637.198 77.4873 636.326 77.4872 635.428C77.4869 633.665 77.4867 631.903 77.4864 630.14C77.4828 602.741 77.5277 575.343 77.6099 547.944C77.7022 517.136 77.7537 486.328 77.7481 455.519C77.7476 452.229 77.7473 448.939 77.7472 445.649C77.7471 444.839 77.747 444.029 77.7469 443.194C77.7468 430.197 77.785 417.201 77.8368 404.205C77.8878 391.122 77.8934 378.041 77.8541 364.959C77.832 357.202 77.8425 349.448 77.9018 341.691C77.9424 335.875 77.9191 330.061 77.8725 324.245C77.8634 321.91 77.874 319.576 77.9077 317.241C78.1336 300.465 74.3168 288.682 65.9057 274.181C63.9131 270.713 62.0666 267.177 60.2238 263.628C59.1059 261.476 57.9667 259.336 56.8242 257.197C53.5886 251.014 50.4956 244.758 47.375 238.517C163.865 238.517 280.355 238.517 400.375 238.517C398.125 245.267 398.125 245.267 396.623 248.173C396.121 249.151 396.121 249.151 395.609 250.148C395.072 251.18 395.072 251.18 394.523 252.232C394.146 252.965 393.768 253.697 393.379 254.452C392.173 256.789 390.962 259.122 389.75 261.455C388.959 262.986 388.169 264.518 387.379 266.05C386.594 267.569 385.809 269.088 385.023 270.607C384.677 271.276 384.331 271.946 383.974 272.635C383.621 273.315 383.268 273.996 382.904 274.697C382.549 275.41 382.194 276.123 381.828 276.858C380.375 279.517 380.375 279.517 378.413 282.283C370.586 294.324 371.237 306.538 371.362 320.522C371.384 324.033 371.36 327.544 371.342 331.055C371.317 337.122 371.32 343.188 371.344 349.254C371.378 358.025 371.368 366.796 371.348 375.567C371.315 389.801 371.318 404.034 371.344 418.268C371.369 432.086 371.377 445.904 371.363 459.721C371.362 460.575 371.361 461.428 371.36 462.307C371.356 466.589 371.351 470.87 371.346 475.151C371.304 510.607 371.321 546.062 371.375 581.517C395.994 581.433 420.613 581.338 445.233 581.23C456.666 581.18 468.1 581.133 479.533 581.095C489.51 581.062 499.486 581.022 509.463 580.974C514.735 580.949 520.007 580.927 525.28 580.914C565.932 580.804 604.803 580.402 641.375 560.517C642.945 559.686 642.945 559.686 644.547 558.837C670.696 544.379 690.866 520.846 704.375 494.517C704.933 493.445 704.933 493.445 705.503 492.352C722.69 459.025 729.388 421.759 730.375 384.517C730.397 383.815 730.419 383.114 730.441 382.391C731.815 333.153 721.93 278.501 688.176 240.705C686.375 238.517 686.375 238.517 686.375 236.517C685.715 236.517 685.055 236.517 684.375 236.517C684.375 235.857 684.375 235.197 684.375 234.517C683.715 234.517 683.055 234.517 682.375 234.517C682.375 233.857 682.375 233.197 682.375 232.517C681.715 232.517 681.055 232.517 680.375 232.517C680.375 231.857 680.375 231.197 680.375 230.517C679.715 230.517 679.055 230.517 678.375 230.517C678.375 229.857 678.375 229.197 678.375 228.517C677.715 228.517 677.055 228.517 676.375 228.517C676.375 227.857 676.375 227.197 676.375 226.517C675.715 226.517 675.055 226.517 674.375 226.517C673.253 225.395 672.135 224.27 671.031 223.13C644.422 197.211 603.617 185.465 567.308 185.328C566.098 185.319 564.887 185.311 563.64 185.302C560.24 185.28 556.84 185.262 553.439 185.247C550.417 185.232 547.394 185.214 544.372 185.195C535.787 185.144 527.202 185.099 518.617 185.058C512.093 185.026 505.569 184.993 499.046 184.958C403.219 184.448 307.39 184.22 96.2647 183.644C95.4835 183.642 94.7023 183.64 93.8975 183.638C78.39 183.597 62.8825 183.557 47.375 183.517C47.375 159.097 47.375 134.677 47.375 109.517Z" fill="black"/>
<path d="M2301.38 481.517C2354.51 481.517 2407.63 481.517 2462.38 481.517C2462.71 705.257 2463.03 928.997 2463.38 1159.52C2464.04 1159.52 2464.69 1159.52 2465.38 1159.52C2465.66 1158.93 2465.94 1158.34 2466.23 1157.73C2467.28 1155.7 2468.41 1153.91 2469.74 1152.04C2470.21 1151.38 2470.67 1150.72 2471.16 1150.04C2471.66 1149.33 2472.17 1148.62 2472.69 1147.89C2473.22 1147.14 2473.75 1146.4 2474.3 1145.63C2479.73 1137.98 2485.23 1130.38 2490.73 1122.78C2493.45 1119.03 2496.16 1115.27 2498.88 1111.52C2499.96 1110.02 2501.04 1108.52 2502.12 1107.02C2502.66 1106.27 2503.2 1105.53 2503.75 1104.77C2564.69 1020.39 2564.69 1020.39 2625.62 936.017C2626.16 935.275 2626.7 934.532 2627.25 933.767C2628.33 932.266 2629.42 930.766 2630.5 929.265C2633.2 925.529 2635.9 921.792 2638.59 918.052C2644.2 910.258 2649.85 902.493 2655.56 894.767C2660.38 888.25 2665.13 881.696 2669.83 875.091C2672.76 870.968 2675.72 866.868 2678.69 862.767C2679.23 862.013 2679.78 861.258 2680.34 860.481C2683.15 856.593 2685.96 852.708 2688.78 848.826C2691.49 845.088 2694.19 841.342 2696.88 837.592C2698.32 835.599 2699.77 833.618 2701.23 831.638C2702.07 830.473 2702.91 829.308 2703.75 828.142C2704.84 826.646 2704.84 826.646 2705.96 825.119C2707.59 822.724 2707.59 822.724 2707.12 820.604C2706.3 818.294 2705.25 816.554 2703.86 814.533C2703.33 813.771 2702.81 813.009 2702.27 812.223C2701.71 811.413 2701.14 810.602 2700.56 809.767C2699.98 808.922 2699.4 808.078 2698.8 807.207C2694.59 801.151 2690.22 795.232 2685.75 789.363C2681.87 784.234 2678.2 778.977 2674.59 773.655C2670.59 767.79 2666.45 762.04 2662.28 756.299C2658.1 750.537 2653.99 744.732 2649.89 738.908C2646.29 733.785 2642.62 728.709 2638.94 723.642C2634.45 717.466 2630.09 711.214 2625.81 704.892C2621.35 698.306 2616.72 691.9 2611.89 685.575C2608.05 680.5 2604.44 675.292 2600.88 670.017C2596.35 663.316 2591.65 656.796 2586.75 650.36C2582.87 645.231 2579.2 639.976 2575.59 634.655C2571.59 628.79 2567.45 623.04 2563.28 617.299C2559.1 611.537 2554.99 605.732 2550.89 599.907C2547.29 594.785 2543.62 589.709 2539.94 584.642C2535.45 578.466 2531.09 572.214 2526.81 565.892C2522.35 559.307 2517.72 552.902 2512.9 546.577C2508.44 540.696 2504.3 534.625 2500.16 528.518C2496.8 523.571 2493.37 518.697 2489.81 513.892C2485.82 508.495 2481.88 503.06 2478 497.58C2477.51 496.894 2477.02 496.208 2476.52 495.501C2476.05 494.837 2475.58 494.174 2475.1 493.49C2474.7 492.915 2474.29 492.34 2473.87 491.748C2472.46 489.648 2471.12 487.522 2469.78 485.378C2469.33 484.655 2468.88 483.933 2468.42 483.189C2468.07 482.637 2467.73 482.085 2467.38 481.517C2490.75 481.073 2514.12 480.738 2537.5 480.533C2548.36 480.435 2559.21 480.302 2570.06 480.084C2579.53 479.894 2588.99 479.772 2598.46 479.729C2603.47 479.705 2608.47 479.647 2613.48 479.508C2643.9 478.697 2643.9 478.697 2651.27 483.341C2655.67 487.634 2658.14 492.415 2660.32 498.105C2662.07 502.111 2664.77 505.328 2667.5 508.705C2671.91 514.477 2676.08 520.377 2680.17 526.386C2683.59 531.41 2687.11 536.35 2690.69 541.267C2695.32 547.638 2699.87 554.055 2704.38 560.517C2708.82 566.893 2713.31 573.229 2717.88 579.517C2723.05 586.64 2728.11 593.834 2733.14 601.056C2737 606.582 2740.92 612.064 2744.88 617.517C2750.05 624.64 2755.11 631.834 2760.14 639.056C2764 644.582 2767.92 650.064 2771.88 655.517C2776.44 661.805 2780.93 668.142 2785.38 674.517C2787.71 677.852 2790.04 681.185 2792.38 684.517C2792.98 685.381 2793.59 686.245 2794.21 687.136C2795.98 689.665 2797.77 692.186 2799.56 694.705C2800.37 695.864 2800.37 695.864 2801.2 697.046C2801.71 697.752 2802.21 698.458 2802.73 699.185C2803.17 699.807 2803.61 700.428 2804.06 701.069C2805.42 702.805 2805.42 702.805 2808.38 703.517C2808.65 702.939 2808.93 702.36 2809.21 701.764C2810.35 699.573 2811.6 697.601 2812.99 695.568C2813.51 694.811 2814.03 694.055 2814.56 693.275C2815.4 692.065 2815.4 692.065 2816.25 690.83C2816.83 689.985 2817.41 689.139 2818.01 688.269C2822.71 681.441 2827.48 674.66 2832.28 667.896C2835.66 663.117 2839.02 658.318 2842.38 653.517C2846.69 647.34 2851.02 641.171 2855.38 635.017C2862.07 625.54 2868.72 616.029 2875.38 606.517C2882.51 596.314 2889.65 586.116 2896.84 575.95C2900.7 570.484 2904.54 565.002 2908.38 559.517C2912.69 553.34 2917.02 547.171 2921.38 541.017C2925.68 534.924 2929.97 528.818 2934.25 522.705C2934.83 521.875 2935.41 521.044 2936.01 520.189C2939.04 515.858 2942.07 511.524 2945.09 507.189C2945.71 506.312 2946.32 505.435 2946.95 504.532C2948.1 502.881 2949.25 501.23 2950.41 499.578C2951.46 498.076 2952.52 496.583 2953.6 495.103C2955.43 492.54 2955.43 492.54 2956.86 489.691C2959.55 485.045 2961.56 482.034 2966.86 480.521C2971.29 480.018 2975.72 480.155 2980.16 480.268C2981.87 480.271 2983.58 480.27 2985.28 480.263C2989.9 480.26 2994.51 480.325 2999.12 480.402C3003.95 480.471 3008.77 480.477 3013.6 480.49C3022.74 480.524 3031.87 480.614 3041 480.725C3051.4 480.848 3061.8 480.908 3072.21 480.964C3093.6 481.078 3114.99 481.272 3136.38 481.517C3135.26 483.282 3134.14 485.046 3133.03 486.81C3132.41 487.792 3131.79 488.774 3131.15 489.787C3129.13 492.892 3127 495.75 3124.69 498.642C3120.82 503.559 3117.15 508.583 3113.56 513.705C3109.4 519.652 3105.2 525.572 3100.94 531.455C3100.13 532.574 3100.13 532.574 3099.3 533.715C3098.21 535.227 3097.11 536.739 3096.02 538.251C3093.3 542.004 3090.59 545.761 3087.88 549.517C3086.79 551.017 3085.71 552.517 3084.62 554.017C3084.09 554.76 3083.55 555.502 3083 556.267C3002.56 667.642 3002.56 667.642 2922.12 779.017C2921.59 779.761 2921.05 780.504 2920.5 781.271C2919.42 782.759 2918.35 784.248 2917.27 785.736C2914.44 789.66 2911.61 793.584 2908.77 797.509C2907.89 798.735 2907.89 798.735 2906.99 799.986C2905.86 801.551 2904.73 803.116 2903.6 804.681C2903.09 805.388 2902.58 806.094 2902.05 806.822C2901.39 807.75 2901.39 807.75 2900.7 808.696C2899.73 810.029 2898.73 811.337 2897.7 812.631C2896.19 814.387 2896.19 814.387 2896.42 816.384C2897.78 819.416 2899.66 821.988 2901.62 824.642C2902.07 825.248 2902.51 825.854 2902.96 826.479C2903.92 827.799 2904.89 829.117 2905.85 830.434C2907.94 833.285 2910 836.151 2912.07 839.017C2913.71 841.305 2915.37 843.591 2917.02 845.876C2920.31 850.422 2923.59 854.969 2926.88 859.517C2927.96 861.017 2929.04 862.517 2930.12 864.017C2936.62 873.017 2943.12 882.017 2949.62 891.017C2950.16 891.76 2950.7 892.503 2951.25 893.268C2952.33 894.765 2953.41 896.262 2954.49 897.758C2957.24 901.559 2959.98 905.359 2962.73 909.158C2968.03 916.49 2973.32 923.831 2978.57 931.199C2983.58 938.223 2988.65 945.211 2993.7 952.203C2996.43 955.973 2999.15 959.745 3001.88 963.517C3002.96 965.017 3004.04 966.517 3005.12 968.017C3020.29 989.017 3035.46 1010.02 3050.62 1031.02C3051.16 1031.76 3051.7 1032.5 3052.25 1033.27C3053.33 1034.76 3054.41 1036.26 3055.49 1037.76C3058.24 1041.56 3060.98 1045.36 3063.73 1049.16C3069.03 1056.49 3074.32 1063.83 3079.57 1071.2C3084.58 1078.22 3089.65 1085.21 3094.7 1092.2C3097.43 1095.97 3100.15 1099.75 3102.88 1103.52C3103.96 1105.02 3105.04 1106.52 3106.12 1108.02C3112.62 1117.02 3119.12 1126.02 3125.62 1135.02C3126.16 1135.76 3126.7 1136.5 3127.25 1137.27C3128.33 1138.76 3129.41 1140.25 3130.48 1141.75C3133.28 1145.63 3136.09 1149.5 3138.91 1153.37C3139.49 1154.17 3140.07 1154.97 3140.67 1155.79C3141.77 1157.31 3142.87 1158.82 3143.97 1160.33C3144.48 1161.02 3144.98 1161.72 3145.5 1162.43C3145.94 1163.03 3146.37 1163.63 3146.82 1164.24C3148.26 1166.35 3149.62 1168.49 3150.97 1170.66C3151.42 1171.38 3151.87 1172.1 3152.34 1172.85C3152.68 1173.4 3153.02 1173.95 3153.38 1174.52C3129.48 1174.96 3105.58 1175.3 3081.69 1175.5C3070.59 1175.6 3059.49 1175.73 3048.4 1175.95C3038.72 1176.14 3029.05 1176.26 3019.37 1176.3C3014.25 1176.33 3009.13 1176.39 3004.01 1176.53C2972.87 1177.34 2972.87 1177.34 2965.42 1172.66C2960.97 1168.35 2958.41 1163.55 2956.28 1157.78C2954.97 1154.5 2953.11 1152 2950.99 1149.19C2950.37 1148.3 2949.75 1147.4 2949.1 1146.48C2948.49 1145.61 2947.88 1144.73 2947.25 1143.83C2942.73 1137.34 2938.22 1130.85 2933.75 1124.33C2929.66 1118.37 2925.53 1112.44 2921.38 1106.52C2917.22 1100.6 2913.09 1094.67 2909 1088.7C2901.85 1078.27 2894.61 1067.9 2887.38 1057.52C2871.79 1035.15 2871.79 1035.15 2864.59 1024.64C2857.9 1014.9 2851.13 1005.21 2844.38 995.517C2828.92 973.334 2828.92 973.334 2822.75 964.33C2821.45 962.438 2820.15 960.546 2818.85 958.655C2817.76 957.081 2816.68 955.505 2815.6 953.93C2813.7 951.163 2811.79 948.402 2809.88 945.642C2809.27 944.767 2808.67 943.891 2808.06 942.989C2807.49 942.176 2806.93 941.363 2806.34 940.525C2805.84 939.799 2805.34 939.074 2804.83 938.326C2803.32 936.263 2803.32 936.263 2800.38 934.517C2800.14 935.031 2799.91 935.546 2799.68 936.076C2797.89 939.421 2795.73 942.476 2793.56 945.58C2792.56 947.026 2791.56 948.473 2790.56 949.919C2790.04 950.675 2789.51 951.43 2788.97 952.208C2786.34 956.01 2783.73 959.826 2781.12 963.642C2780.59 964.429 2780.05 965.215 2779.49 966.025C2774.64 973.118 2769.81 980.218 2764.97 987.318C2758.25 997.164 2751.52 1007 2744.79 1016.83C2738.48 1026.05 2732.17 1035.28 2725.88 1044.52C2719.58 1053.75 2713.28 1062.97 2706.97 1072.19C2704.27 1076.13 2701.57 1080.07 2698.88 1084.02C2695.65 1088.73 2692.42 1093.45 2689.2 1098.16C2683.41 1106.61 2677.64 1115.06 2671.88 1123.52C2666.65 1131.19 2661.42 1138.85 2656.17 1146.51C2653.36 1150.62 2650.55 1154.73 2647.75 1158.85C2647.15 1159.73 2646.56 1160.6 2645.94 1161.5C2644.8 1163.18 2643.65 1164.87 2642.51 1166.55C2642 1167.31 2641.49 1168.06 2640.96 1168.83C2640.28 1169.83 2640.28 1169.83 2639.59 1170.85C2638.38 1172.52 2638.38 1172.52 2636.38 1174.52C2525.82 1174.52 2415.28 1174.52 2301.38 1174.52C2301.38 945.827 2301.38 717.137 2301.38 481.517Z" fill="black"/>
<path d="M1156.38 697.517C1157.28 698.19 1158.18 698.863 1159.11 699.556C1159.94 700.183 1160.77 700.809 1161.63 701.455C1162.35 702 1163.08 702.545 1163.83 703.107C1164.34 703.572 1164.85 704.038 1165.38 704.517C1165.38 705.177 1165.38 705.837 1165.38 706.517C1165.91 706.744 1166.45 706.971 1167 707.205C1170.2 708.973 1172.67 711.054 1175.38 713.517C1175.38 714.177 1175.38 714.837 1175.38 715.517C1176.04 715.517 1176.7 715.517 1177.38 715.517C1177.38 716.177 1177.38 716.837 1177.38 717.517C1178.04 717.517 1178.7 717.517 1179.38 717.517C1179.38 718.177 1179.38 718.837 1179.38 719.517C1180.04 719.517 1180.7 719.517 1181.38 719.517C1182.73 721.05 1184.01 722.645 1185.25 724.267C1188.09 727.959 1188.09 727.959 1191.25 731.365C1237.46 778.254 1254.14 849.761 1253.73 913.385C1253.29 953.487 1245.21 993.413 1227.38 1029.52C1226.99 1030.29 1226.61 1031.07 1226.22 1031.87C1215.88 1052.65 1202.64 1071.07 1187.38 1088.52C1186.93 1089.03 1186.48 1089.54 1186.02 1090.06C1174.13 1103.59 1160.86 1114.84 1146.38 1125.52C1145.49 1126.17 1144.61 1126.83 1143.7 1127.51C1074.73 1177.33 985.256 1191.09 902.423 1178.08C856.157 1170.55 813.1 1152.19 775.376 1124.52C774.643 1123.98 773.911 1123.45 773.156 1122.9C770.974 1121.3 768.798 1119.69 766.626 1118.08C765.97 1117.6 765.315 1117.11 764.639 1116.61C760.915 1113.82 757.629 1110.86 754.376 1107.52C752.52 1105.93 750.633 1104.39 748.732 1102.85C748.284 1102.41 747.837 1101.97 747.376 1101.52C747.376 1100.86 747.376 1100.2 747.376 1099.52C746.716 1099.52 746.056 1099.52 745.376 1099.52C745.376 1098.86 745.376 1098.2 745.376 1097.52C744.716 1097.52 744.056 1097.52 743.376 1097.52C742.046 1096 740.786 1094.43 739.564 1092.83C737.487 1090.12 735.455 1087.59 733.024 1085.19C686.688 1038.38 669.015 967.927 669.129 904.091C669.438 845.488 686.657 787.701 723.376 741.517C724.091 740.61 724.807 739.702 725.544 738.767C737.899 723.372 751.679 708.536 767.376 696.517C768.353 695.758 768.353 695.758 769.35 694.983C786.427 681.77 804.77 670.575 824.376 661.517C825.12 661.167 825.864 660.817 826.631 660.457C858.694 645.518 893.284 637.821 928.376 634.517C929.073 634.446 929.77 634.376 930.487 634.303C1010.81 626.388 1092.52 648.134 1156.38 697.517Z" fill="black"/>
<path d="M1742.38 481.517C1914.96 481.517 2087.55 481.517 2265.38 481.517C2265.38 523.757 2265.38 565.997 2265.38 609.517C2145.92 609.517 2026.46 609.517 1903.38 609.517C1903.38 670.237 1903.38 730.957 1903.38 793.517C2008.97 793.517 2114.57 793.517 2223.38 793.517C2223.38 835.757 2223.38 877.997 2223.38 921.517C2117.78 921.517 2012.18 921.517 1903.38 921.517C1903.38 1005.01 1903.38 1088.5 1903.38 1174.52C1850.24 1174.52 1797.12 1174.52 1742.38 1174.52C1742.38 945.827 1742.38 717.137 1742.38 481.517Z" fill="black"/>
<path d="M1283.38 439.517C1334.19 439.517 1385.01 439.517 1437.38 439.517C1437.38 682.067 1437.38 924.617 1437.38 1174.52C1386.56 1174.52 1335.74 1174.52 1283.38 1174.52C1283.38 931.967 1283.38 689.417 1283.38 439.517Z" fill="black"/>
<path d="M1507.38 641.517C1558.19 641.517 1609.01 641.517 1661.38 641.517C1661.38 817.407 1661.38 993.297 1661.38 1174.52C1610.56 1174.52 1559.74 1174.52 1507.38 1174.52C1507.38 998.627 1507.38 822.737 1507.38 641.517Z" fill="black"/>
<path d="M1005.37 767.517C1006.58 767.915 1007.78 768.314 1009.03 768.724C1041.61 779.953 1066.83 803.892 1082.35 834.406C1101.34 873.697 1103.09 923.454 1089.1 964.643C1077.15 997.896 1055.91 1025.15 1024.37 1041.52C1023.5 1041.98 1022.62 1042.43 1021.72 1042.91C994.539 1056.16 962.916 1058.69 933.374 1053.52C932.693 1053.4 932.013 1053.28 931.312 1053.16C909.41 1049.14 889.219 1038.99 872.374 1024.52C871.349 1023.69 871.349 1023.69 870.303 1022.85C850.022 1006.11 837.329 980.364 830.374 955.517C829.986 954.19 829.986 954.19 829.591 952.836C825.477 938.213 824.902 923.859 824.874 908.767C824.869 907.871 824.865 906.974 824.86 906.051C824.776 864.775 836.882 827.85 865.749 797.767C901.765 763.345 958.126 751.589 1005.37 767.517Z" fill="#FEFEFE"/>
<path d="M27.5675 0.259735C28.2601 0.256229 28.9526 0.252723 29.6661 0.249111C31.98 0.239828 34.2937 0.244712 36.6076 0.249578C38.286 0.245841 39.9644 0.241238 41.6428 0.235848C46.2501 0.223619 50.8573 0.223878 55.4646 0.226236C60.4354 0.226645 65.4061 0.215605 70.3769 0.206121C80.1133 0.189512 89.8497 0.184012 99.5861 0.182897C107.5 0.181946 115.413 0.177836 123.327 0.171495C145.762 0.153884 168.198 0.144656 190.633 0.146156C192.447 0.146276 192.447 0.146276 194.298 0.146398C195.509 0.14648 196.72 0.146562 197.967 0.146646C217.596 0.147459 237.225 0.128315 256.854 0.100122C277.008 0.0714028 297.162 0.0575808 317.317 0.0593093C328.632 0.0599734 339.947 0.0544682 351.263 0.0329532C360.896 0.0147546 370.528 0.0103832 380.161 0.023972C385.076 0.030508 389.99 0.0305959 394.905 0.0132655C399.405 -0.0024419 403.905 0.000374548 408.406 0.0178338C410.032 0.0209088 411.659 0.0172524 413.285 0.00611363C423.239 -0.0575285 431.328 0.255337 439.188 6.892C445.703 14.71 447.204 20.4885 446.375 30.517C444.496 39.2744 437.352 45.3018 431.375 51.517C430.156 52.8823 428.946 54.256 427.75 55.642C425.158 58.631 422.526 61.5802 419.875 64.517C417.127 67.5635 414.391 70.6187 411.688 73.7045C411.125 74.3426 410.563 74.9807 409.984 75.6381C408.924 76.8765 407.891 78.1397 406.891 79.4272C402.477 85.0155 397.365 88.0679 390.375 89.517C388.489 89.6097 386.601 89.6479 384.713 89.6512C382.971 89.6579 382.971 89.6579 381.194 89.6647C379.918 89.6645 378.641 89.6644 377.326 89.6642C375.957 89.6675 374.588 89.6712 373.219 89.6753C369.452 89.6853 365.686 89.6891 361.919 89.6917C357.858 89.6956 353.798 89.7052 349.737 89.7139C339.927 89.7337 330.118 89.7437 320.309 89.7526C315.688 89.757 311.068 89.7624 306.447 89.7676C291.086 89.7847 275.724 89.7991 260.363 89.8064C256.377 89.8083 252.391 89.8102 248.405 89.8122C247.414 89.8127 246.423 89.8131 245.402 89.8136C229.357 89.8219 213.311 89.8473 197.266 89.8798C180.789 89.9128 164.312 89.9308 147.835 89.934C138.585 89.9362 129.336 89.9449 120.086 89.9705C112.208 89.9922 104.329 90.0002 96.451 89.9905C92.4334 89.986 88.416 89.9878 84.3985 90.0073C80.7149 90.025 77.0319 90.0239 73.3484 90.0084C71.3962 90.0049 69.444 90.021 67.4919 90.038C58.6408 89.9736 50.4324 88.8837 43.4375 83.0795C41.4117 80.5626 39.3934 78.0399 37.375 75.517C35.7098 73.8489 34.0429 72.1825 32.375 70.517C29.0005 66.8875 25.6889 63.2019 22.375 59.517C21.6596 58.7294 20.9442 57.9418 20.2071 57.1303C19.5819 56.4329 18.9567 55.7355 18.3125 55.017C17.4908 54.1043 17.4908 54.1043 16.6524 53.1733C15.375 51.517 15.375 51.517 14.375 48.517C13.715 48.517 13.055 48.517 12.375 48.517C10.6144 46.5125 8.9871 44.5107 7.37504 42.392C6.92387 41.8222 6.47269 41.2525 6.00785 40.6654C0.951829 34.0836 -0.583878 27.7487 0.375037 19.517C2.22266 12.0149 6.9564 6.67963 13.375 2.517C18.2321 0.872893 22.4525 0.265599 27.5675 0.259735Z" fill="black"/>
<path d="M64.1289 1085.38C65.285 1085.38 66.4412 1085.37 67.6324 1085.37C68.8983 1085.37 70.1641 1085.37 71.4683 1085.37C72.8301 1085.37 74.1919 1085.36 75.5536 1085.36C79.295 1085.35 83.0364 1085.35 86.7778 1085.34C90.8134 1085.34 94.849 1085.33 98.8846 1085.32C108.63 1085.3 118.375 1085.29 128.12 1085.28C132.711 1085.28 137.302 1085.27 141.893 1085.27C157.158 1085.25 172.422 1085.23 187.687 1085.23C191.647 1085.23 195.607 1085.22 199.566 1085.22C201.043 1085.22 201.043 1085.22 202.549 1085.22C218.491 1085.21 234.433 1085.19 250.375 1085.15C266.748 1085.12 283.12 1085.1 299.493 1085.1C308.684 1085.1 317.874 1085.09 327.065 1085.06C334.892 1085.04 342.719 1085.03 350.546 1085.04C354.538 1085.05 358.529 1085.05 362.52 1085.03C366.179 1085.01 369.838 1085.01 373.498 1085.03C375.437 1085.03 377.376 1085.01 379.315 1085C388.044 1085.06 396.259 1086.13 403.188 1091.83C403.909 1092.72 404.631 1093.6 405.375 1094.52C406.372 1095.69 407.372 1096.85 408.375 1098.02C408.884 1098.62 409.393 1099.22 409.918 1099.84C411.118 1101.22 412.394 1102.54 413.688 1103.83C419.609 1109.75 425.083 1116.13 430.555 1122.46C431.884 1123.96 433.249 1125.43 434.633 1126.88C441.373 1134.03 446.527 1140.46 446.938 1150.58C446.577 1157.97 444.598 1163.78 439.125 1168.89C431 1175.77 420.972 1174.94 410.984 1174.9C409.301 1174.91 407.617 1174.91 405.934 1174.92C401.318 1174.94 396.701 1174.93 392.085 1174.92C387.102 1174.92 382.12 1174.93 377.138 1174.94C367.381 1174.96 357.624 1174.96 347.867 1174.95C339.937 1174.95 332.006 1174.95 324.076 1174.96C322.948 1174.96 321.819 1174.96 320.656 1174.96C318.363 1174.96 316.07 1174.96 313.777 1174.96C292.276 1174.98 270.774 1174.97 249.273 1174.96C229.602 1174.95 209.931 1174.96 190.26 1174.99C170.06 1175.01 149.861 1175.02 129.662 1175.02C118.322 1175.01 106.982 1175.01 95.642 1175.03C85.989 1175.05 76.3361 1175.05 66.6831 1175.03C61.7585 1175.02 56.834 1175.02 51.9093 1175.03C47.3996 1175.05 42.8902 1175.04 38.3805 1175.02C36.7507 1175.02 35.1208 1175.02 33.4911 1175.03C23.8296 1175.09 16.1202 1174.61 8.07031 1168.88C2.63069 1163.3 0.296144 1158.27 0 1150.45C0.410078 1140.08 7.19533 1131.99 14.0625 1124.64C14.8256 1123.94 15.5888 1123.24 16.375 1122.52C19.3596 1119.69 21.9473 1116.83 24.375 1113.52C26.8027 1110.21 29.3904 1107.35 32.375 1104.52C34.7552 1102.2 37.0609 1099.89 39.1875 1097.34C46.3337 1088.81 52.9378 1085.4 64.1289 1085.38Z" fill="black"/>
<path d="M1579.52 394.396C1607.63 393.85 1632.35 400.91 1654.38 418.517C1655.37 419.177 1656.36 419.837 1657.38 420.517C1657.38 421.177 1657.38 421.837 1657.38 422.517C1658.04 422.517 1658.7 422.517 1659.38 422.517C1659.38 423.177 1659.38 423.837 1659.38 424.517C1660.04 424.517 1660.7 424.517 1661.38 424.517C1662.9 426.402 1664.27 428.267 1665.63 430.267C1666.03 430.859 1666.43 431.451 1666.84 432.061C1680.11 452.015 1683.37 474.01 1679.25 497.517C1675.26 514.282 1667.48 528.213 1655.38 540.517C1654.61 541.291 1653.85 542.064 1653.07 542.861C1633.18 561.9 1606.52 567.168 1579.89 566.919C1552.7 566.29 1527.98 557.871 1508.8 538.057C1493.1 521.143 1485.95 500.317 1486.38 477.517C1487.36 453.905 1497.69 434.37 1514.49 418.033C1532.81 402.049 1555.53 395.32 1579.52 394.396Z" fill="black"/>
<path d="M206.375 332.517C219.245 332.517 232.115 332.517 245.375 332.517C245.375 503.457 245.375 674.397 245.375 850.517C232.505 850.517 219.635 850.517 206.375 850.517C206.375 679.577 206.375 508.637 206.375 332.517Z" fill="#FDFDFD"/>
<path d="M125.375 332.517C138.245 332.517 151.115 332.517 164.375 332.517C164.375 503.457 164.375 674.397 164.375 850.517C151.505 850.517 138.635 850.517 125.375 850.517C125.375 679.577 125.375 508.637 125.375 332.517Z" fill="#FDFDFD"/>
<path d="M285.375 332.517C298.245 332.517 311.115 332.517 324.375 332.517C324.375 503.127 324.375 673.737 324.375 849.517C311.505 849.517 298.635 849.517 285.375 849.517C285.375 678.907 285.375 508.297 285.375 332.517Z" fill="white"/>
<path d="M1328.37 1274.52C1345.05 1287.62 1355.49 1305.38 1358.37 1326.52C1360.35 1348.14 1355.79 1368.52 1342.5 1385.95C1327.91 1402.83 1308.64 1412.59 1286.37 1414.52C1264.28 1415.85 1242.18 1411.55 1224.58 1397.24C1222.12 1395.05 1219.73 1392.82 1217.37 1390.52C1216.55 1389.73 1215.72 1388.95 1214.87 1388.15C1200.05 1372.54 1195.69 1352.18 1196.07 1331.32C1196.83 1311.95 1205.51 1293.96 1219.37 1280.52C1249.12 1254.08 1295.77 1251.93 1328.37 1274.52Z" fill="#010101"/>
<path d="M585.375 1274.52C602.049 1287.62 612.486 1305.38 615.375 1326.52C617.346 1348.14 612.791 1368.52 599.5 1385.95C584.914 1402.83 565.64 1412.59 543.375 1414.52C521.275 1415.85 499.178 1411.55 481.578 1397.24C479.117 1395.05 476.726 1392.82 474.375 1390.52C473.548 1389.73 472.722 1388.95 471.871 1388.15C457.052 1372.54 452.685 1352.18 453.07 1331.32C453.832 1311.95 462.51 1293.96 476.375 1280.52C506.122 1254.08 552.772 1251.93 585.375 1274.52Z" fill="#010101"/>
<path d="M47.375 1011.52C164.195 1011.52 281.015 1011.52 401.375 1011.52C401.375 1029.34 401.375 1047.16 401.375 1065.52C284.555 1065.52 167.735 1065.52 47.375 1065.52C47.375 1047.7 47.375 1029.88 47.375 1011.52Z" fill="black"/>
<path d="M2186.38 1261.52C2281 1261.52 2281 1261.52 2298.38 1278.52C2300.97 1281.37 2303.24 1284.31 2305.38 1287.52C2305.77 1288.11 2306.17 1288.7 2306.59 1289.3C2313.41 1300.97 2313.31 1316.47 2310.84 1329.29C2307.26 1342.9 2299.79 1352.27 2287.8 1359.26C2285.38 1360.52 2282.93 1361.55 2280.38 1362.52C2284.99 1370.13 2290.07 1377.33 2295.31 1384.52C2299.11 1389.74 2302.84 1395.01 2306.5 1400.33C2306.95 1400.98 2307.4 1401.63 2307.86 1402.3C2310.15 1405.65 2312.3 1409.03 2314.38 1412.52C2288.94 1415.02 2288.94 1415.02 2282.1 1411.27C2278.53 1407.83 2276.62 1403.48 2274.61 1399C2272.28 1394.31 2269.07 1390.19 2266 1385.95C2264.84 1384.31 2263.69 1382.66 2262.54 1381.01C2261.49 1379.51 2260.43 1378.01 2259.38 1376.52C2259.05 1375.92 2258.73 1375.33 2258.4 1374.71C2256.74 1371.9 2255.55 1369.89 2252.35 1368.87C2249.85 1368.61 2247.43 1368.57 2244.92 1368.61C2244.12 1368.6 2243.32 1368.59 2242.49 1368.58C2239.51 1368.54 2236.54 1368.56 2233.56 1368.58C2226.9 1368.56 2220.24 1368.54 2213.38 1368.52C2213.38 1383.04 2213.38 1397.56 2213.38 1412.52C2204.47 1412.52 2195.56 1412.52 2186.38 1412.52C2186.38 1362.69 2186.38 1312.86 2186.38 1261.52Z" fill="black"/>
<path d="M1709.75 1260.08C1711.27 1260.09 1711.27 1260.09 1712.81 1260.1C1720.24 1260.27 1726.69 1261.08 1733.38 1264.52C1734.2 1264.94 1735.03 1265.37 1735.88 1265.8C1742.82 1269.9 1746.69 1275.46 1749.75 1282.83C1751.68 1294.19 1750.36 1304.2 1743.63 1313.77C1737.42 1321.37 1729.71 1326.48 1721.38 1331.52C1721.71 1332.84 1722.04 1334.16 1722.38 1335.52C1723.04 1335.52 1723.7 1335.52 1724.38 1335.52C1724.38 1336.18 1724.38 1336.84 1724.38 1337.52C1725.04 1337.52 1725.7 1337.52 1726.38 1337.52C1726.38 1338.18 1726.38 1338.84 1726.38 1339.52C1727.04 1339.52 1727.7 1339.52 1728.38 1339.52C1730.09 1341.13 1731.75 1342.81 1733.38 1344.52C1734.39 1345.55 1735.4 1346.57 1736.42 1347.6C1736.94 1348.12 1737.45 1348.64 1737.98 1349.17C1738.51 1349.7 1739.03 1350.23 1739.56 1350.77C1740.1 1351.31 1740.63 1351.85 1741.18 1352.41C1744 1355.32 1744 1355.32 1747.38 1357.52C1747.38 1358.18 1747.38 1358.84 1747.38 1359.52C1748.04 1359.52 1748.7 1359.52 1749.38 1359.52C1749.38 1360.18 1749.38 1360.84 1749.38 1361.52C1751.36 1362.01 1751.36 1362.01 1753.38 1362.52C1756.15 1354.62 1758.28 1346.61 1760.38 1338.52C1765.64 1339.11 1770.32 1340.33 1775.31 1342.08C1776.34 1342.43 1776.34 1342.43 1777.39 1342.79C1779.05 1343.36 1780.71 1343.94 1782.38 1344.52C1780.11 1354.92 1777.14 1363.96 1772.38 1373.52C1771.34 1375.84 1770.36 1378.17 1769.38 1380.52C1770.04 1380.52 1770.7 1380.52 1771.38 1380.52C1771.38 1381.18 1771.38 1381.84 1771.38 1382.52C1772.04 1382.52 1772.7 1382.52 1773.38 1382.52C1773.38 1383.18 1773.38 1383.84 1773.38 1384.52C1774.04 1384.52 1774.7 1384.52 1775.38 1384.52C1775.38 1385.18 1775.38 1385.84 1775.38 1386.52C1776.04 1386.52 1776.7 1386.52 1777.38 1386.52C1778.71 1388.18 1780.04 1389.85 1781.38 1391.52C1783.32 1393.28 1785.33 1394.89 1787.38 1396.52C1785.77 1400.17 1783.52 1403 1781 1406.08C1780.23 1407.03 1779.46 1407.98 1778.67 1408.96C1776.68 1411.18 1774.83 1412.86 1772.38 1414.52C1771.89 1414.02 1771.41 1413.53 1770.92 1413.02C1770.28 1412.38 1769.65 1411.74 1769 1411.08C1768.37 1410.44 1767.75 1409.8 1767.1 1409.15C1765.46 1407.44 1765.46 1407.44 1763.38 1406.52C1763.38 1405.86 1763.38 1405.2 1763.38 1404.52C1762.72 1404.52 1762.06 1404.52 1761.38 1404.52C1761.38 1403.86 1761.38 1403.2 1761.38 1402.52C1760.72 1402.52 1760.06 1402.52 1759.38 1402.52C1757.99 1400.89 1756.66 1399.22 1755.38 1397.52C1752.34 1398.97 1749.45 1400.63 1746.56 1402.33C1726.92 1413.83 1706.33 1417.56 1683.92 1412.49C1671.67 1409.13 1660.64 1403.26 1653.38 1392.52C1647.98 1382.33 1646.86 1373.04 1650 1361.83C1651.94 1356.12 1654.31 1351.93 1658.38 1347.52C1659 1346.8 1659.63 1346.09 1660.27 1345.35C1666.44 1338.69 1673.66 1334.16 1681.38 1329.52C1680.79 1325.7 1679.05 1323.66 1676.56 1320.77C1669.73 1312.44 1665.84 1303.8 1666.12 1292.88C1667.26 1282.32 1672.33 1274.27 1680.38 1267.52C1689.25 1261.72 1699.33 1259.97 1709.75 1260.08Z" fill="black"/>
<path d="M1401.38 1261.52C1424.38 1261.52 1424.38 1261.52 1430.44 1267.45C1431.87 1269.5 1431.87 1269.5 1432.86 1271.33C1435.53 1275.93 1438.81 1279.85 1442.25 1283.89C1443.45 1285.33 1444.64 1286.78 1445.83 1288.22C1446.42 1288.94 1447.01 1289.65 1447.62 1290.39C1450.41 1293.77 1453.17 1297.17 1455.94 1300.58C1456.47 1301.23 1457 1301.88 1457.54 1302.56C1458.61 1303.87 1459.68 1305.19 1460.75 1306.51C1463.54 1309.95 1466.33 1313.39 1469.12 1316.83C1469.94 1317.84 1469.94 1317.84 1470.78 1318.87C1473.81 1322.59 1476.84 1326.31 1479.88 1330.02C1481.38 1331.85 1482.88 1333.68 1484.38 1335.52C1485.14 1336.45 1485.14 1336.45 1485.92 1337.41C1487.64 1339.51 1489.35 1341.61 1491.06 1343.7C1491.6 1344.36 1492.13 1345.01 1492.68 1345.69C1495.9 1349.63 1498.99 1353.64 1501.99 1357.75C1503.55 1359.81 1503.55 1359.81 1506.38 1362.52C1506.71 1329.19 1507.03 1295.86 1507.38 1261.52C1516.28 1261.52 1525.19 1261.52 1534.38 1261.52C1534.38 1311.35 1534.38 1361.18 1534.38 1412.52C1511.38 1412.52 1511.38 1412.52 1506.81 1408.58C1505.66 1406.56 1504.51 1404.54 1503.38 1402.52C1501.24 1399.73 1498.96 1397.07 1496.69 1394.39C1495.47 1392.92 1494.25 1391.44 1493.03 1389.96C1492.42 1389.22 1491.81 1388.48 1491.19 1387.72C1484.28 1379.33 1477.43 1370.9 1470.75 1362.33C1467.22 1357.8 1463.61 1353.38 1459.88 1349.02C1455.67 1344.1 1451.63 1339.09 1447.66 1333.99C1443.91 1329.18 1440.1 1324.43 1436.25 1319.7C1435.68 1319 1435.11 1318.3 1434.53 1317.58C1432.05 1314.46 1432.05 1314.46 1429.38 1311.52C1429.04 1344.85 1428.72 1378.18 1428.38 1412.52C1419.47 1412.52 1410.56 1412.52 1401.38 1412.52C1401.38 1362.69 1401.38 1312.86 1401.38 1261.52Z" fill="black"/>
<path d="M277.375 1261.52C300.375 1261.52 300.375 1261.52 306.438 1267.45C307.868 1269.5 307.868 1269.5 308.855 1271.33C311.527 1275.93 314.811 1279.85 318.25 1283.89C319.446 1285.33 320.64 1286.78 321.832 1288.22C322.422 1288.94 323.012 1289.65 323.62 1290.39C326.408 1293.77 329.174 1297.17 331.938 1300.58C332.467 1301.23 332.996 1301.88 333.542 1302.56C334.611 1303.87 335.68 1305.19 336.749 1306.51C339.539 1309.95 342.332 1313.39 345.125 1316.83C345.945 1317.84 345.945 1317.84 346.781 1318.87C349.806 1322.59 352.836 1326.31 355.875 1330.02C357.375 1331.85 358.875 1333.68 360.375 1335.52C361.141 1336.45 361.141 1336.45 361.923 1337.41C363.638 1339.51 365.35 1341.61 367.062 1343.7C367.597 1344.36 368.132 1345.01 368.684 1345.69C371.897 1349.63 374.991 1353.64 377.991 1357.75C379.546 1359.81 379.546 1359.81 382.375 1362.52C382.705 1329.19 383.035 1295.86 383.375 1261.52C392.285 1261.52 401.195 1261.52 410.375 1261.52C410.375 1311.35 410.375 1361.18 410.375 1412.52C387.375 1412.52 387.375 1412.52 382.812 1408.58C381.658 1406.56 380.514 1404.54 379.375 1402.52C377.241 1399.73 374.959 1397.07 372.688 1394.39C371.466 1392.92 370.248 1391.44 369.031 1389.96C368.423 1389.22 367.814 1388.48 367.188 1387.72C360.284 1379.33 353.43 1370.9 346.75 1362.33C343.223 1357.8 339.605 1353.38 335.875 1349.02C331.672 1344.1 327.634 1339.09 323.663 1333.99C319.914 1329.18 316.095 1324.43 312.25 1319.7C311.681 1319 311.112 1318.3 310.526 1317.58C308.051 1314.46 308.051 1314.46 305.375 1311.52C305.045 1344.85 304.715 1378.18 304.375 1412.52C295.465 1412.52 286.555 1412.52 277.375 1412.52C277.375 1362.69 277.375 1312.86 277.375 1261.52Z" fill="black"/>
<path d="M89.375 1261.52C112.375 1261.52 112.375 1261.52 118.438 1267.45C119.868 1269.5 119.868 1269.5 120.855 1271.33C123.527 1275.93 126.811 1279.85 130.25 1283.89C131.446 1285.33 132.64 1286.78 133.832 1288.22C134.422 1288.94 135.012 1289.65 135.62 1290.39C138.408 1293.77 141.174 1297.17 143.938 1300.58C144.467 1301.23 144.996 1301.88 145.542 1302.56C146.611 1303.87 147.68 1305.19 148.749 1306.51C151.539 1309.95 154.332 1313.39 157.125 1316.83C157.945 1317.84 157.945 1317.84 158.781 1318.87C161.806 1322.59 164.836 1326.31 167.875 1330.02C169.375 1331.85 170.875 1333.68 172.375 1335.52C173.141 1336.45 173.141 1336.45 173.923 1337.41C175.638 1339.51 177.35 1341.61 179.062 1343.7C179.597 1344.36 180.132 1345.01 180.684 1345.69C183.897 1349.63 186.991 1353.64 189.991 1357.75C191.546 1359.81 191.546 1359.81 194.375 1362.52C194.705 1329.19 195.035 1295.86 195.375 1261.52C204.285 1261.52 213.195 1261.52 222.375 1261.52C222.375 1311.35 222.375 1361.18 222.375 1412.52C199.375 1412.52 199.375 1412.52 194.812 1408.58C193.658 1406.56 192.514 1404.54 191.375 1402.52C189.241 1399.73 186.959 1397.07 184.688 1394.39C183.466 1392.92 182.248 1391.44 181.031 1389.96C180.423 1389.22 179.814 1388.48 179.188 1387.72C172.284 1379.33 165.43 1370.9 158.75 1362.33C155.223 1357.8 151.605 1353.38 147.875 1349.02C143.672 1344.1 139.634 1339.09 135.663 1333.99C131.914 1329.18 128.095 1324.43 124.25 1319.7C123.681 1319 123.112 1318.3 122.526 1317.58C120.051 1314.46 120.051 1314.46 117.375 1311.52C117.045 1344.85 116.715 1378.18 116.375 1412.52C107.465 1412.52 98.555 1412.52 89.375 1412.52C89.375 1362.69 89.375 1312.86 89.375 1261.52Z" fill="black"/>
<path d="M2402.38 1261.52C2411.61 1261.52 2420.85 1261.52 2430.38 1261.52C2440.1 1282.99 2449.81 1304.47 2459.48 1325.97C2464.58 1337.32 2469.7 1348.66 2474.84 1360C2487.13 1387.11 2487.13 1387.11 2493.06 1400.52C2493.51 1401.53 2493.97 1402.55 2494.43 1403.59C2494.83 1404.49 2495.23 1405.4 2495.64 1406.33C2496.15 1407.48 2496.15 1407.48 2496.67 1408.66C2497.38 1410.52 2497.38 1410.52 2497.38 1412.52C2487.81 1412.52 2478.23 1412.52 2468.38 1412.52C2467.38 1410.15 2466.38 1407.78 2465.35 1405.33C2464.38 1403.05 2463.42 1400.76 2462.45 1398.47C2461.78 1396.88 2461.1 1395.29 2460.43 1393.69C2459.47 1391.4 2458.5 1389.12 2457.54 1386.83C2457.23 1386.12 2456.93 1385.4 2456.62 1384.66C2455.39 1381.35 2455.39 1381.35 2453.38 1378.52C2451.03 1378.42 2448.72 1378.39 2446.38 1378.4C2445.65 1378.4 2444.91 1378.4 2444.16 1378.4C2441.73 1378.4 2439.3 1378.41 2436.87 1378.42C2435.19 1378.42 2433.51 1378.42 2431.83 1378.42C2427.4 1378.43 2422.97 1378.44 2418.54 1378.45C2414.02 1378.46 2409.5 1378.46 2404.99 1378.47C2396.12 1378.48 2387.25 1378.5 2378.38 1378.52C2375.71 1383.79 2373.06 1389.05 2370.73 1394.49C2370.3 1395.49 2369.87 1396.49 2369.43 1397.52C2369 1398.53 2368.57 1399.54 2368.12 1400.58C2367.25 1402.63 2366.37 1404.69 2365.48 1406.74C2365.1 1407.63 2364.72 1408.53 2364.33 1409.45C2363.38 1411.52 2363.38 1411.52 2362.38 1412.52C2360.38 1412.6 2358.37 1412.62 2356.37 1412.61C2355.16 1412.61 2353.94 1412.61 2352.69 1412.6C2351.41 1412.6 2350.13 1412.59 2348.81 1412.58C2347.53 1412.58 2346.25 1412.57 2344.92 1412.57C2341.74 1412.55 2338.56 1412.54 2335.38 1412.52C2336.04 1407.55 2338.1 1403.36 2340.17 1398.86C2340.56 1398.01 2340.94 1397.17 2341.34 1396.3C2342.6 1393.54 2343.86 1390.78 2345.12 1388.02C2346 1386.09 2346.88 1384.17 2347.75 1382.25C2349.5 1378.42 2351.24 1374.59 2352.99 1370.76C2356 1364.15 2358.97 1357.52 2361.94 1350.89C2362.96 1348.6 2363.99 1346.31 2365.01 1344.02C2365.54 1342.84 2366.07 1341.66 2366.62 1340.44C2376.01 1319.48 2385.44 1298.55 2394.94 1277.64C2395.26 1276.93 2395.59 1276.22 2395.92 1275.48C2401.19 1263.89 2401.19 1263.89 2402.38 1261.52Z" fill="black"/>
<path d="M862.375 1261.52C871.615 1261.52 880.855 1261.52 890.375 1261.52C900.099 1282.99 909.813 1304.47 919.478 1325.97C924.58 1337.32 929.703 1348.66 934.841 1360C947.128 1387.11 947.128 1387.11 953.062 1400.52C953.514 1401.53 953.966 1402.55 954.431 1403.59C954.829 1404.49 955.227 1405.4 955.637 1406.33C956.147 1407.48 956.147 1407.48 956.667 1408.66C957.375 1410.52 957.375 1410.52 957.375 1412.52C947.805 1412.52 938.235 1412.52 928.375 1412.52C927.376 1410.15 926.377 1407.78 925.348 1405.33C924.382 1403.05 923.415 1400.76 922.448 1398.47C921.775 1396.88 921.103 1395.29 920.432 1393.69C919.469 1391.4 918.502 1389.12 917.535 1386.83C917.234 1386.12 916.933 1385.4 916.623 1384.66C915.386 1381.35 915.386 1381.35 913.375 1378.52C911.032 1378.42 908.72 1378.39 906.377 1378.4C905.645 1378.4 904.913 1378.4 904.16 1378.4C901.73 1378.4 899.301 1378.41 896.871 1378.42C895.191 1378.42 893.511 1378.42 891.831 1378.42C887.4 1378.43 882.97 1378.44 878.539 1378.45C874.022 1378.46 869.504 1378.46 864.986 1378.47C856.116 1378.48 847.245 1378.5 838.375 1378.52C835.705 1383.79 833.057 1389.05 830.734 1394.49C830.304 1395.49 829.873 1396.49 829.43 1397.52C828.999 1398.53 828.569 1399.54 828.125 1400.58C827.247 1402.63 826.367 1404.69 825.484 1406.74C825.102 1407.63 824.721 1408.53 824.327 1409.45C823.375 1411.52 823.375 1411.52 822.375 1412.52C820.375 1412.6 818.373 1412.62 816.371 1412.61C815.156 1412.61 813.941 1412.61 812.689 1412.6C811.41 1412.6 810.131 1412.59 808.812 1412.58C807.529 1412.58 806.246 1412.57 804.924 1412.57C801.741 1412.55 798.558 1412.54 795.375 1412.52C796.041 1407.55 798.097 1403.36 800.172 1398.86C800.557 1398.01 800.941 1397.17 801.338 1396.3C802.596 1393.54 803.86 1390.78 805.125 1388.02C806.002 1386.09 806.878 1384.17 807.754 1382.25C809.497 1378.42 811.243 1374.59 812.99 1370.76C816.002 1364.15 818.975 1357.52 821.938 1350.89C822.962 1348.6 823.987 1346.31 825.012 1344.02C825.542 1342.84 826.072 1341.66 826.619 1340.44C836.007 1319.48 845.436 1298.55 854.938 1277.64C855.261 1276.93 855.585 1276.22 855.919 1275.48C861.186 1263.89 861.186 1263.89 862.375 1261.52Z" fill="black"/>
<path d="M2665.38 1261.52C2701.35 1261.52 2737.31 1261.52 2774.38 1261.52C2774.38 1269.11 2774.38 1276.7 2774.38 1284.52C2747.65 1284.85 2720.92 1285.18 2693.38 1285.52C2693.38 1298.06 2693.38 1310.6 2693.38 1323.52C2717.14 1323.85 2740.9 1324.18 2765.38 1324.52C2765.38 1332.11 2765.38 1339.7 2765.38 1347.52C2741.28 1347.52 2717.19 1347.52 2692.38 1347.52C2692.38 1361.05 2692.38 1374.58 2692.38 1388.52C2720.42 1388.52 2748.48 1388.52 2777.38 1388.52C2777.38 1396.44 2777.38 1404.36 2777.38 1412.52C2740.42 1412.52 2703.46 1412.52 2665.38 1412.52C2665.38 1362.69 2665.38 1312.86 2665.38 1261.52Z" fill="black"/>
<path d="M47.375 961.517C164.195 961.517 281.015 961.517 401.375 961.517C401.375 970.427 401.375 979.337 401.375 988.517C284.555 988.517 167.735 988.517 47.375 988.517C47.375 979.607 47.375 970.697 47.375 961.517Z" fill="black"/>
<path d="M47.375 188.517C164.195 188.517 281.015 188.517 401.375 188.517C401.375 197.427 401.375 206.337 401.375 215.517C284.555 215.517 167.735 215.517 47.375 215.517C47.375 206.607 47.375 197.697 47.375 188.517Z" fill="black"/>
<path d="M2945.38 1276.52C2947.83 1278.45 2949.46 1280.02 2951.38 1282.52C2951.16 1287.68 2946.41 1290.82 2942.97 1294.17C2940.22 1296.66 2937.58 1298.66 2934.38 1300.52C2933.8 1300.01 2933.23 1299.5 2932.65 1298.98C2918.21 1286.72 2902.89 1283.2 2884.38 1284.52C2869.86 1286.39 2857.74 1293.34 2848.56 1304.78C2840.14 1316.87 2836.87 1330.14 2838.81 1344.76C2841.31 1358.62 2847.03 1370.83 2858.38 1379.52C2874.86 1389.94 2891.93 1391.28 2910.67 1387.56C2915.37 1386.33 2915.37 1386.33 2923.38 1382.52C2923.71 1367.01 2924.04 1351.5 2924.38 1335.52C2932.96 1335.52 2941.54 1335.52 2950.38 1335.52C2950.59 1343.22 2950.79 1350.9 2950.89 1358.6C2950.95 1362.19 2951.02 1365.77 2951.13 1369.35C2951.24 1372.81 2951.3 1376.26 2951.32 1379.72C2951.35 1381.67 2951.43 1383.63 2951.51 1385.58C2951.51 1394.29 2951.51 1394.29 2948.19 1397.86C2945.66 1399.66 2943.16 1401.13 2940.38 1402.52C2939.34 1403.12 2938.3 1403.72 2937.22 1404.34C2912.4 1415.97 2885.3 1417.78 2859.25 1409.39C2848.88 1405.46 2837.81 1398.85 2830.38 1390.52C2830.38 1389.86 2830.38 1389.2 2830.38 1388.52C2829.72 1388.52 2829.06 1388.52 2828.38 1388.52C2813.44 1371.41 2808.96 1350.24 2810.16 1328.2C2811.75 1308.6 2821.7 1290.9 2836.25 1277.96C2868.01 1252.88 2912.97 1253.12 2945.38 1276.52Z" fill="black"/>
<path d="M1309.94 1293.67C1321.46 1302.4 1327.55 1314.52 1330.37 1328.52C1331.88 1344.53 1328.69 1359.76 1318.37 1372.52C1310.61 1381.3 1299.22 1388.28 1287.37 1389.52C1270.59 1390.54 1256.02 1389.36 1242.37 1378.52C1231.03 1368.02 1224.88 1355.5 1224.09 1340.04C1223.63 1324.54 1227.36 1312.31 1237.56 1300.27C1256.35 1280.47 1287.71 1278.45 1309.94 1293.67Z" fill="#FDFDFD"/>
<path d="M566.941 1293.67C578.461 1302.4 584.548 1314.52 587.374 1328.52C588.883 1344.53 585.694 1359.76 575.374 1372.52C567.61 1381.3 556.221 1388.28 544.374 1389.52C527.593 1390.54 513.016 1389.36 499.374 1378.52C488.031 1368.02 481.879 1355.5 481.093 1340.04C480.628 1324.54 484.365 1312.31 494.562 1300.27C513.351 1280.47 544.711 1278.45 566.941 1293.67Z" fill="#FDFDFD"/>
<path d="M1995.38 1270.52C1996.37 1271.51 1997.36 1272.5 1998.38 1273.52C1995.73 1279.79 1993.1 1286.06 1990.38 1292.52C1986.08 1292.52 1983.27 1291.37 1979.44 1289.7C1963.46 1283.16 1943.33 1279.4 1926.73 1286.19C1921.76 1289 1918.51 1292.34 1915.88 1297.39C1914.95 1303.17 1915.3 1307.66 1918.25 1312.77C1926 1320.73 1939.3 1322.52 1949.69 1325.02C1988.8 1334.48 1988.8 1334.48 2000.38 1350.52C2005.36 1359.2 2005.7 1370.17 2003.69 1379.78C1999.96 1391.85 1993.6 1400.29 1982.5 1406.27C1960.23 1417.75 1932.22 1417.07 1908.71 1409.57C1899.99 1406.58 1892.17 1402.39 1884.38 1397.52C1886.71 1389.85 1889.92 1382.75 1893.38 1375.52C1894 1375.88 1894.62 1376.24 1895.25 1376.62C1914.95 1387.8 1938.07 1394.96 1960.75 1389.27C1962.31 1388.73 1963.85 1388.15 1965.38 1387.52C1966.06 1387.25 1966.74 1386.98 1967.44 1386.71C1971.81 1384.66 1973.87 1381.95 1975.71 1377.66C1977.25 1372.69 1976.84 1368.86 1975.12 1363.89C1968.53 1353.92 1952.18 1352.15 1941.38 1349.52C1922.02 1344.8 1901.72 1339.8 1890.56 1321.76C1885.74 1312.67 1886.27 1301.59 1888.88 1291.89C1893.46 1278.62 1902.28 1270.96 1914.5 1264.77C1939.53 1254.2 1971.84 1257.7 1995.38 1270.52Z" fill="black"/>
<path d="M633.375 1261.52C642.945 1261.52 652.515 1261.52 662.375 1261.52C666.287 1269.34 669.991 1277.04 673.375 1285.08C674.413 1287.52 675.452 1289.97 676.492 1292.41C676.781 1293.09 677.069 1293.76 677.367 1294.46C681.559 1304.31 685.808 1314.14 690.05 1323.97C691.461 1327.24 692.871 1330.51 694.281 1333.78C700.287 1347.7 706.321 1361.61 712.375 1375.52C715.024 1372.11 716.819 1368.63 718.535 1364.69C718.837 1364.01 719.139 1363.33 719.45 1362.63C720.451 1360.36 721.444 1358.1 722.438 1355.83C723.146 1354.22 723.855 1352.62 724.564 1351.01C726.454 1346.73 728.337 1342.44 730.218 1338.15C731.744 1334.68 733.273 1331.2 734.801 1327.73C741.087 1313.44 747.358 1299.15 753.59 1284.84C754.248 1283.34 754.906 1281.83 755.564 1280.32C756.787 1277.51 758.007 1274.7 759.225 1271.9C759.766 1270.66 760.307 1269.41 760.848 1268.17C761.314 1267.1 761.781 1266.02 762.262 1264.92C763.375 1262.52 763.375 1262.52 764.375 1261.52C766.375 1261.43 768.377 1261.41 770.379 1261.42C771.594 1261.42 772.809 1261.43 774.061 1261.43C775.34 1261.44 776.619 1261.45 777.938 1261.45C779.221 1261.46 780.504 1261.46 781.826 1261.47C785.009 1261.48 788.192 1261.5 791.375 1261.52C789.889 1266.23 788.05 1270.74 786.059 1275.26C785.731 1276.01 785.403 1276.76 785.065 1277.54C783.983 1280.01 782.898 1282.48 781.812 1284.95C781.047 1286.7 780.281 1288.45 779.516 1290.2C777.925 1293.84 776.334 1297.48 774.742 1301.11C771.458 1308.61 768.19 1316.11 764.921 1323.62C763.163 1327.65 761.404 1331.69 759.645 1335.72C759.295 1336.53 758.945 1337.33 758.585 1338.15C756.411 1343.14 754.236 1348.13 752.059 1353.11C743.426 1372.88 734.848 1392.68 726.375 1412.52C717.135 1412.52 707.895 1412.52 698.375 1412.52C687.004 1387.29 675.913 1361.95 664.93 1336.56C664.662 1335.94 664.394 1335.32 664.118 1334.68C663.855 1334.07 663.591 1333.46 663.319 1332.83C662.801 1331.63 662.283 1330.44 661.75 1329.2C661.239 1328.02 660.727 1326.84 660.201 1325.62C655.112 1313.88 649.945 1302.17 644.766 1290.46C643.892 1288.48 643.021 1286.51 642.149 1284.53C640.902 1281.7 639.641 1278.88 638.374 1276.06C637.726 1274.6 637.078 1273.15 636.43 1271.7C636.123 1271.02 635.817 1270.34 635.501 1269.65C634.218 1266.76 633.375 1264.72 633.375 1261.52Z" fill="black"/>
<path d="M2978.38 1261.52C2987.94 1259.74 2997.98 1258.36 3007.38 1261.52C3014.69 1267.59 3018.44 1277.06 3022.41 1285.51C3025.24 1291.43 3028.73 1296.94 3032.2 1302.49C3034 1305.38 3035.76 1308.29 3037.52 1311.2C3042.08 1318.68 3046.7 1326.12 3051.38 1333.52C3054.67 1330.49 3056.81 1327.39 3059.03 1323.52C3059.36 1322.94 3059.7 1322.36 3060.05 1321.76C3060.77 1320.52 3061.48 1319.27 3062.2 1318.02C3064.09 1314.73 3066 1311.44 3067.91 1308.16C3068.29 1307.5 3068.67 1306.85 3069.07 1306.17C3072.87 1299.64 3076.76 1293.17 3080.87 1286.83C3083.51 1282.72 3085.78 1278.74 3087.67 1274.23C3092.07 1264.38 3092.07 1264.38 3096.38 1261.52C3105.18 1259.37 3114.47 1260.41 3123.38 1261.52C3119.62 1269.46 3115.22 1276.92 3110.62 1284.39C3109.87 1285.62 3109.12 1286.85 3108.37 1288.08C3106.81 1290.63 3105.25 1293.18 3103.69 1295.73C3100.42 1301.07 3097.17 1306.43 3093.92 1311.79C3092.53 1314.09 3091.13 1316.39 3089.74 1318.69C3086.76 1323.59 3083.78 1328.5 3080.8 1333.41C3079.23 1336.01 3077.65 1338.6 3076.08 1341.2C3075.32 1342.44 3074.57 1343.69 3073.82 1344.93C3072.78 1346.65 3071.73 1348.37 3070.69 1350.08C3070.1 1351.06 3069.5 1352.04 3068.89 1353.05C3067.76 1354.9 3066.58 1356.71 3065.38 1358.52C3065.05 1361 3065.05 1361 3065.06 1363.81C3065.04 1364.9 3065.02 1365.98 3065 1367.09C3064.98 1368.26 3064.97 1369.42 3064.96 1370.62C3064.94 1371.82 3064.92 1373.01 3064.9 1374.24C3064.84 1378.06 3064.8 1381.88 3064.75 1385.7C3064.71 1388.29 3064.67 1390.88 3064.63 1393.47C3064.54 1399.82 3064.46 1406.17 3064.38 1412.52C3055.47 1412.52 3046.56 1412.52 3037.38 1412.52C3037.5 1408.94 3037.63 1405.37 3037.75 1401.69C3038.67 1364.96 3038.67 1364.96 3021.76 1333.6C3018.02 1328.77 3015 1323.55 3011.92 1318.29C3010.2 1315.37 3008.43 1312.48 3006.66 1309.58C3005.96 1308.42 3005.25 1307.26 3004.54 1306.09C3004.19 1305.51 3003.84 1304.92 3003.47 1304.32C3001.96 1301.83 3000.44 1299.33 2998.93 1296.83C2997.41 1294.31 2995.88 1291.79 2994.35 1289.27C2993.63 1288.09 2992.91 1286.9 2992.2 1285.71C2988.11 1278.96 2983.96 1272.26 2979.63 1265.66C2978.38 1263.52 2978.38 1263.52 2978.38 1261.52Z" fill="black"/>
<path d="M2502.38 1261.52C2544.62 1261.52 2586.85 1261.52 2630.38 1261.52C2630.38 1269.11 2630.38 1276.7 2630.38 1284.52C2613.88 1284.52 2597.38 1284.52 2580.38 1284.52C2580.38 1326.76 2580.38 1369 2580.38 1412.52C2571.14 1412.52 2561.9 1412.52 2552.38 1412.52C2552.38 1370.28 2552.38 1328.04 2552.38 1284.52C2535.88 1284.52 2519.38 1284.52 2502.38 1284.52C2502.38 1276.93 2502.38 1269.34 2502.38 1261.52Z" fill="black"/>
<path d="M2023.38 1261.52C2065.62 1261.52 2107.85 1261.52 2151.38 1261.52C2151.38 1269.11 2151.38 1276.7 2151.38 1284.52C2134.88 1284.52 2118.38 1284.52 2101.38 1284.52C2101.38 1326.76 2101.38 1369 2101.38 1412.52C2092.14 1412.52 2082.9 1412.52 2073.38 1412.52C2073.38 1370.28 2073.38 1328.04 2073.38 1284.52C2056.88 1284.52 2040.38 1284.52 2023.38 1284.52C2023.38 1276.93 2023.38 1269.34 2023.38 1261.52Z" fill="black"/>
<path d="M963.375 1261.52C1005.62 1261.52 1047.85 1261.52 1091.38 1261.52C1091.38 1269.11 1091.38 1276.7 1091.38 1284.52C1074.88 1284.52 1058.38 1284.52 1041.38 1284.52C1041.38 1326.76 1041.38 1369 1041.38 1412.52C1032.14 1412.52 1022.9 1412.52 1013.38 1412.52C1013.38 1370.28 1013.38 1328.04 1013.38 1284.52C996.875 1284.52 980.375 1284.52 963.375 1284.52C963.375 1276.93 963.375 1269.34 963.375 1261.52Z" fill="black"/>
<path d="M1125.38 1261.52C1134.28 1261.52 1143.19 1261.52 1152.38 1261.52C1152.38 1311.35 1152.38 1361.18 1152.38 1412.52C1143.47 1412.52 1134.56 1412.52 1125.38 1412.52C1125.38 1362.69 1125.38 1312.86 1125.38 1261.52Z" fill="black"/>
<path d="M8.375 1261.52C17.285 1261.52 26.195 1261.52 35.375 1261.52C35.375 1311.35 35.375 1361.18 35.375 1412.52C26.465 1412.52 17.555 1412.52 8.375 1412.52C8.375 1362.69 8.375 1312.86 8.375 1261.52Z" fill="black"/>
<path d="M2213.38 1285.52C2220.24 1285.46 2227.11 1285.39 2234.19 1285.33C2237.4 1285.29 2237.4 1285.29 2240.69 1285.25C2253.29 1285.15 2265.09 1285.27 2275.38 1293.52C2281.85 1299.99 2283.54 1305.99 2283.81 1314.89C2283.61 1323.34 2282.01 1329.9 2276.38 1336.33C2267.83 1344.15 2256.76 1345.68 2245.7 1345.62C2244.47 1345.61 2244.47 1345.61 2243.21 1345.61C2240.16 1345.61 2237.11 1345.59 2234.06 1345.58C2227.24 1345.56 2220.41 1345.54 2213.38 1345.52C2213.38 1325.72 2213.38 1305.92 2213.38 1285.52Z" fill="#FBFBFB"/>
<path d="M1698.28 1343.63C1701.11 1344.83 1702.72 1346.54 1704.86 1348.74C1705.71 1349.61 1706.57 1350.48 1707.44 1351.37C1708.33 1352.29 1709.21 1353.2 1710.12 1354.14C1715.48 1359.63 1720.81 1365.03 1726.64 1370.02C1728.97 1372.03 1731.18 1374.16 1733.37 1376.33C1734.14 1377.08 1734.9 1377.83 1735.69 1378.6C1737.37 1380.52 1737.37 1380.52 1737.37 1382.52C1727.1 1390.98 1713.09 1393.5 1700.11 1392.9C1691.81 1392.05 1685.02 1389.32 1678.97 1383.5C1675.26 1378.9 1674.07 1373.86 1674.31 1368.02C1675.98 1358.23 1683.01 1352.82 1690.67 1347.36C1696.31 1343.51 1696.31 1343.51 1698.28 1343.63Z" fill="#FCFCFC"/>
<path d="M2415.38 1290.52C2418.19 1291.93 2418.45 1293.59 2419.67 1296.48C2420.12 1297.54 2420.57 1298.59 2421.03 1299.68C2421.76 1301.42 2421.76 1301.42 2422.5 1303.18C2423 1304.36 2423.5 1305.54 2424.01 1306.76C2425.35 1309.91 2426.67 1313.06 2428 1316.21C2429.34 1319.39 2430.69 1322.57 2432.03 1325.76C2434.44 1331.44 2436.84 1337.12 2439.23 1342.81C2440.19 1345.09 2441.19 1347.35 2442.2 1349.61C2443.38 1352.52 2443.38 1352.52 2443.38 1355.52C2425.23 1355.52 2407.08 1355.52 2388.38 1355.52C2389.08 1351.99 2389.65 1349.55 2391.01 1346.38C2391.35 1345.6 2391.68 1344.81 2392.03 1344.01C2392.39 1343.17 2392.75 1342.34 2393.13 1341.47C2393.51 1340.59 2393.89 1339.71 2394.28 1338.8C2395.49 1335.97 2396.72 1333.15 2397.94 1330.33C2398.73 1328.48 2399.53 1326.63 2400.32 1324.78C2405.26 1313.32 2410.28 1301.91 2415.38 1290.52Z" fill="#FAFAFA"/>
<path d="M875.375 1290.52C878.195 1291.93 878.447 1293.59 879.666 1296.48C880.116 1297.54 880.567 1298.59 881.031 1299.68C881.756 1301.42 881.756 1301.42 882.496 1303.18C882.997 1304.36 883.497 1305.54 884.013 1306.76C885.348 1309.91 886.674 1313.06 887.999 1316.21C889.339 1319.39 890.686 1322.57 892.033 1325.76C894.438 1331.44 896.839 1337.12 899.228 1342.81C900.194 1345.09 901.193 1347.35 902.203 1349.61C903.375 1352.52 903.375 1352.52 903.375 1355.52C885.225 1355.52 867.075 1355.52 848.375 1355.52C849.08 1351.99 849.646 1349.55 851.014 1346.38C851.348 1345.6 851.683 1344.81 852.027 1344.01C852.391 1343.17 852.754 1342.34 853.129 1341.47C853.508 1340.59 853.887 1339.71 854.278 1338.8C855.493 1335.97 856.715 1333.15 857.938 1330.33C858.733 1328.48 859.528 1326.63 860.322 1324.78C865.256 1313.32 870.281 1301.91 875.375 1290.52Z" fill="#FAFAFA"/>
<path d="M1709.31 1279.02C1710.02 1279.03 1710.73 1279.04 1711.46 1279.05C1716.97 1279.26 1720.21 1279.94 1724.37 1283.52C1727.75 1287.21 1728.02 1291.13 1727.84 1295.97C1726.38 1304 1719.23 1308.44 1712.96 1312.85C1707.24 1316.54 1707.24 1316.54 1704.41 1316.47C1701.36 1315.04 1699.83 1312.83 1697.75 1310.2C1696.97 1309.24 1696.2 1308.27 1695.4 1307.28C1691.09 1301.4 1690.53 1296.75 1691.37 1289.52C1695.04 1281.76 1700.95 1278.79 1709.31 1279.02Z" fill="#FBFBFB"/>
</svg>
